<svg width="131" height="131" viewBox="0 0 131 131" fill="none" xmlns="http://www.w3.org/2000/svg">
<g clip-path="url(#clip0_1034_1851)">
<path d="M86.727 131.121C57.8214 131.121 28.9764 131.121 0.126465 131.121C0.126465 87.4629 0.126465 43.8046 0.126465 0.133789C43.7747 0.133789 87.428 0.133789 131.101 0.133789C131.101 43.7879 131.101 87.4546 131.101 131.121C116.34 131.121 101.564 131.121 86.727 131.121ZM105.596 95.2249C108.236 93.7277 110.779 92.0811 113.238 90.3018C113.524 90.0949 113.667 89.8744 113.688 89.513C113.774 88.0405 113.934 86.5713 113.986 85.098C114.143 80.5874 114.011 76.0876 113.444 71.6028C112.903 67.3237 112.033 63.117 110.803 58.9843C108.321 50.6439 104.507 42.9415 99.6602 35.7329C99.4013 35.3479 99.0941 35.086 98.6696 34.8966C93.2606 32.4829 87.6517 30.6973 81.8509 29.5107C81.0229 29.3414 80.1884 29.2035 79.3354 29.0471C78.355 30.7317 77.5585 32.4512 76.7574 34.2275C69.384 33.1323 62.0177 33.1326 54.6444 34.2275C53.8424 32.4526 53.0499 30.733 52.1019 29.114C51.9981 29.104 51.9381 29.09 51.8795 29.0944C51.7587 29.1033 51.6376 29.1163 51.5184 29.1377C44.966 30.3172 38.6479 32.2558 32.5701 34.9773C32.2405 35.1249 32.0074 35.3366 31.8098 35.6338C29.6922 38.8176 27.7499 42.1031 26.0201 45.5142C20.2213 56.9495 17.2915 69.0706 17.3771 81.8982C17.3934 84.3411 17.6055 86.7822 17.7008 89.2252C17.7216 89.757 17.9065 90.1008 18.3484 90.4191C25.493 95.5667 33.2633 99.4571 41.6676 102.083C41.8557 102.142 42.0487 102.184 42.26 102.24C44.237 99.5712 45.9737 96.7952 47.4723 93.8298C46.7021 93.5143 46.0081 93.2405 45.3227 92.9464C44.6359 92.6517 43.9517 92.3495 43.2775 92.0273C42.5849 91.6963 41.8998 91.3485 41.2225 90.9872C40.5777 90.6431 39.9137 90.3256 39.3205 89.8897C39.3789 89.8064 39.3873 89.7856 39.4026 89.7739C39.8367 89.4433 40.297 89.1417 40.6987 88.7756C41.0838 88.4245 41.4089 88.4251 41.8818 88.6389C51.6115 93.0373 61.7857 94.63 72.3968 93.4234C76.7113 92.9328 80.9162 91.9621 84.9958 90.4799C86.5891 89.901 88.1407 89.2078 89.7153 88.5764C89.8902 88.5063 90.1567 88.4039 90.2687 88.4805C90.8934 88.9073 91.4836 89.3846 92.1455 89.8905C90.7951 90.7118 89.4787 91.4104 88.1254 92.0343C86.7573 92.6649 85.3679 93.2495 83.95 93.8708C85.4608 96.8339 87.1918 99.6182 89.1648 102.257C94.9185 100.519 100.347 98.196 105.596 95.2249Z" fill="#77C4B4"/>
<path d="M105.557 95.2471C100.347 98.1963 94.9183 100.52 89.1645 102.257C87.1915 99.6185 85.4605 96.8341 83.9497 93.8711C85.3676 93.2497 86.757 92.6652 88.1251 92.0345C89.4784 91.4106 90.7948 90.712 92.1452 89.8908C91.4833 89.3848 90.8931 88.9075 90.2684 88.4807C90.1564 88.4042 89.8899 88.5065 89.715 88.5766C88.1404 89.208 86.5888 89.9013 84.9955 90.4802C80.9159 91.9624 76.711 92.933 72.3965 93.4236C61.7854 94.6302 51.6112 93.0375 41.8815 88.6391C41.4086 88.4253 41.0835 88.4247 40.6984 88.7758C40.2968 89.1419 39.8364 89.4435 39.4023 89.7742C39.387 89.7858 39.3786 89.8066 39.3202 89.8899C39.9134 90.3258 40.5775 90.6434 41.2223 90.9874C41.8995 91.3487 42.5846 91.6965 43.2772 92.0275C43.9514 92.3497 44.6356 92.652 45.3225 92.9467C46.0078 93.2407 46.7018 93.5145 47.472 93.83C45.9734 96.7954 44.2367 99.5714 42.2597 102.24C42.0484 102.184 41.8554 102.142 41.6673 102.083C33.263 99.4573 25.4927 95.567 18.3481 90.4194C17.9062 90.101 17.7213 89.7573 17.7006 89.2254C17.6052 86.7825 17.3931 84.3413 17.3768 81.8985C17.2912 69.0709 20.221 56.9497 26.0198 45.5144C27.7496 42.1034 29.6919 38.8178 31.8095 35.634C32.0071 35.3368 32.2402 35.1251 32.5698 34.9776C38.6476 32.2561 44.9657 30.3175 51.5181 29.1379C51.6373 29.1165 51.7584 29.1036 51.8792 29.0946C51.9378 29.0902 51.9978 29.1043 52.1016 29.1142C53.0496 30.7333 53.8421 32.4528 54.6442 34.2277C62.0174 33.1329 69.3837 33.1325 76.7571 34.2277C77.5582 32.4514 78.3547 30.7319 79.3351 29.0474C80.1881 29.2037 81.0226 29.3416 81.8506 29.511C87.6514 30.6976 93.2604 32.4832 98.6693 34.8968C99.0938 35.0862 99.401 35.3481 99.6599 35.7332C104.507 42.9417 108.32 50.6441 110.803 58.9846C112.033 63.1172 112.902 67.324 113.443 71.6031C114.01 76.0879 114.142 80.5877 113.985 85.0983C113.934 86.5715 113.774 88.0407 113.688 89.5132C113.667 89.8746 113.523 90.0951 113.237 90.3021C110.779 92.0813 108.236 93.7279 105.557 95.2471ZM81.2508 78.9442C84.4314 79.0626 86.8708 77.7169 88.6638 75.145C89.7025 73.655 90.2493 71.9766 90.4088 70.1703C90.6605 67.3179 89.9352 64.7558 88.0564 62.5757C86.5542 60.8325 84.6456 59.8086 82.3255 59.6676C79.3984 59.4897 77.0332 60.6357 75.2445 62.9112C73.2956 65.3905 72.7115 68.2442 73.2748 71.3167C74.0123 75.3392 77.1325 78.58 81.2508 78.9442ZM51.9208 59.9629C48.0198 58.8778 44.4796 60.6354 42.5428 63.7009C41.277 65.7044 40.7905 67.9049 40.998 70.2484C41.2385 72.9646 42.3554 75.2649 44.4612 77.0284C47.7358 79.7707 52.3187 79.5659 55.364 76.5702C58.8896 73.1019 59.3598 67.1362 56.413 63.1669C55.2841 61.6463 53.832 60.564 51.9208 59.9629Z" fill="white"/>
<path d="M81.1957 78.9401C77.1329 78.5798 74.0126 75.339 73.2751 71.3165C72.7118 68.244 73.2959 65.3903 75.2448 62.911C77.0335 60.6355 79.3987 59.4895 82.3259 59.6674C84.6459 59.8084 86.5545 60.8323 88.0567 62.5755C89.9355 64.7556 90.6608 67.3177 90.4091 70.1701C90.2497 71.9764 89.7028 73.6548 88.6641 75.1448C86.8711 77.7167 84.4317 79.0624 81.1957 78.9401Z" fill="#77C4B4"/>
<path d="M51.9666 59.9795C53.8319 60.5638 55.284 61.646 56.4129 63.1666C59.3597 67.136 58.8896 73.1017 55.3639 76.5699C52.3186 79.5656 47.7357 79.7704 44.4611 77.0281C42.3553 75.2647 41.2384 72.9643 40.9979 70.2482C40.7904 67.9047 41.2769 65.7041 42.5427 63.7006C44.4795 60.6351 48.0197 58.8775 51.9666 59.9795Z" fill="#77C4B4"/>
</g>
<defs>
<clipPath id="clip0_1034_1851">
<rect width="131" height="131" fill="white"/>
</clipPath>
</defs>
</svg>
