<svg width="68" height="58" viewBox="0 0 68 58" fill="none" xmlns="http://www.w3.org/2000/svg">
<path d="M20.6019 23.8009L20.5509 36.8008M33.6018 23.8519L33.5763 30.3518M46.6017 23.9029L46.5252 43.4027M7.4745 56.2496L59.4741 56.4537C61.198 56.4604 62.854 55.7821 64.0777 54.5679C65.3015 53.3537 65.9928 51.7031 65.9995 49.9792L66.1271 17.4795C66.1338 15.7556 65.4555 14.0996 64.2413 12.8758C63.0271 11.6521 61.3765 10.9608 59.6526 10.954L33.8803 10.8529C32.8098 10.8431 31.7582 10.5691 30.819 10.0551C29.8798 9.54118 29.0821 8.80318 28.4968 7.90674L25.8472 3.99631C25.2619 3.09986 24.4642 2.36187 23.525 1.8479C22.5858 1.33393 21.5342 1.0599 20.4637 1.05016L7.69128 1.00005C5.96738 0.993286 4.31141 1.67161 3.08765 2.88581C1.86389 4.1 1.17259 5.7506 1.16582 7.4745L1.00005 49.7242C0.986024 53.2991 3.89952 56.2356 7.4745 56.2496Z" stroke="#77C4B4" stroke-width="2" stroke-linecap="round" stroke-linejoin="round"/>
</svg>
