<svg width="179" height="179" viewBox="0 0 179 179" fill="none" xmlns="http://www.w3.org/2000/svg">
<g clip-path="url(#clip0_1034_1686)">
<path d="M94.6501 30.0752C102.933 30.1258 111.293 29.4908 119.479 30.407C128.916 31.4632 135.475 40.5772 135.372 50.6364C135.271 60.5865 128.428 68.3491 117.488 70.3911C114.656 70.6197 112.422 70.7025 109.786 70.7079C104.467 70.8872 99.5491 71.1439 94.4502 71.3394C94.1048 70.9386 93.9409 70.5989 93.9506 70.11C94.2951 69.716 94.4659 69.4712 94.6554 68.8532C94.6575 55.9901 94.6409 43.5003 94.6321 30.7767C94.6433 30.3871 94.6467 30.2311 94.6501 30.0752Z" fill="#77C4B4"/>
<path d="M93.777 70.2592C93.9409 70.5988 94.1049 70.9385 94.4759 71.7296C94.7474 77.3952 94.812 82.6095 94.849 88.2134C94.8228 90.6712 94.8243 92.7393 94.8258 94.8074C94.7736 100.043 94.7215 105.278 94.4427 110.891C94.2161 111.268 93.8786 111.385 93.5107 111.317C85.9555 111.332 78.7683 111.416 71.3999 111.465C71.2186 111.432 70.8677 111.545 70.8475 111.47C70.8272 111.395 70.746 111.263 70.746 111.263C65.5247 109.283 60.6263 106.865 57.4424 101.948C49.4367 89.5859 56.5331 73.3095 71.6368 70.6279C72.5642 70.4536 72.9678 70.3322 73.7313 70.2466C80.6532 70.2746 87.2151 70.2669 93.777 70.2592Z" fill="#77C4B4"/>
<path d="M94.6248 31.0104C94.6413 43.5002 94.6578 55.99 94.2864 68.848C90.0925 69.2152 86.2842 69.131 82.4811 69.2355C78.3368 69.3494 74.1973 69.6383 70.0558 69.8509C60.7411 67.5241 54.5543 60.2113 54.1047 50.9967C53.643 41.5309 59.4366 33.7589 70.0201 30.5859C78.5843 30.867 86.6045 30.9387 94.6248 31.0104Z" fill="#77C4B4"/>
<path d="M71.5812 111.499C78.7684 111.416 85.9556 111.332 93.5219 111.546C94.1324 112.213 94.3638 112.582 94.5952 112.952C94.6459 119.293 94.8127 125.635 94.7211 131.974C94.5713 142.344 86.8307 150.523 76.1864 151.773C66.8043 152.874 57.1801 146.018 54.8183 136.552C52.298 126.451 57.3272 116.467 66.8581 112.679C67.9593 112.242 69.0904 111.879 70.4768 111.373C70.7461 111.263 70.8273 111.395 70.9137 111.58C71.0002 111.765 71.3464 111.793 71.3464 111.793L71.5812 111.499Z" fill="#77C4B4"/>
<path d="M95.0301 94.9842C94.8245 92.7394 94.823 90.6713 94.9881 88.0219C96.6612 78.7257 102.325 73.7632 110.188 70.7853C112.422 70.7025 114.656 70.6197 117.221 70.522C126.872 71.5687 134.73 80.6692 135.34 88.1573C136.131 97.8673 131.398 106.125 122.615 109.724C111.209 114.399 98.6773 107.734 95.0301 94.9842Z" fill="#77C4B4"/>
<path d="M94.6326 30.7769C86.6046 30.939 78.5843 30.8673 70.313 30.5891C70.3889 30.3045 70.716 30.2262 71.6273 30.2203C72.8722 30.1869 73.5328 30.0812 74.1934 29.9755C80.7689 29.959 87.3444 29.9425 94.2852 30.0007C94.6471 30.2313 94.6437 30.3872 94.6326 30.7769Z" fill="#77C4B4"/>
<path d="M70.2832 69.9432C74.1974 69.6385 78.3369 69.3496 82.4812 69.2356C86.2843 69.1311 90.0926 69.2153 94.2679 69.2214C94.4664 69.4712 94.2955 69.716 93.951 70.1101C87.2155 70.267 80.6536 70.2747 73.4257 70.1449C72.3359 70.0377 71.9121 70.0679 71.4882 70.0981C71.1623 70.0772 70.8365 70.0562 70.2832 69.9432Z" fill="#6BB8A8"/>
<path d="M73.9924 29.8491C73.5324 30.0811 72.8718 30.1868 71.8813 30.22C72.2982 30.006 73.045 29.8644 73.9924 29.8491Z" fill="#77C4B4"/>
<path d="M71.5396 70.218C71.9118 70.0679 72.3356 70.0377 73.0654 70.1092C72.9678 70.3323 72.5643 70.4537 71.9479 70.5652C71.7351 70.5554 71.5911 70.3378 71.5396 70.218Z" fill="#77C4B4"/>
<path d="M94.6506 112.667C94.3639 112.582 94.1325 112.213 93.8899 111.614C93.8788 111.385 94.2162 111.268 94.3938 111.251C94.6163 111.617 94.6611 112 94.6506 112.667Z" fill="#77C4B4"/>
<path d="M71.4 111.465C71.5812 111.499 71.3463 111.793 71.3463 111.793C71.3463 111.793 71.0001 111.765 70.934 111.655C70.8678 111.545 71.2187 111.432 71.4 111.465Z" fill="#77C4B4"/>
</g>
<defs>
<clipPath id="clip0_1034_1686">
<rect width="179" height="179" fill="white"/>
</clipPath>
</defs>
</svg>
