<svg width="73" height="66" viewBox="0 0 73 66" fill="none" xmlns="http://www.w3.org/2000/svg">
<path d="M50.5552 64.8329L50.7776 8.16671C50.7849 6.28811 50.0457 4.48352 48.7226 3.14994C47.3994 1.81635 45.6007 1.06301 43.7221 1.05564L29.5555 1.00005C27.6769 0.992684 25.8723 1.73189 24.5387 3.05505C23.2051 4.37821 22.4518 6.17694 22.4444 8.05554L22.2221 64.7218M8.25009 15.0832L64.9163 15.3056C68.8283 15.3209 71.9872 18.5047 71.9718 22.4166L71.8328 57.833C71.8175 61.745 68.6338 64.9039 64.7218 64.8885L8.05554 64.6662C4.14356 64.6508 0.984707 61.4671 1.00006 57.5551L1.13902 22.1387C1.15437 18.2267 4.3381 15.0679 8.25009 15.0832Z" stroke="#77C4B4" stroke-width="2" stroke-linecap="round" stroke-linejoin="round"/>
</svg>
