<svg width="442" height="217" viewBox="0 0 442 217" fill="none" xmlns="http://www.w3.org/2000/svg">
<g clip-path="url(#clip0_1034_1699)">
<path d="M284.642 114.124C284.609 113.835 284.575 113.545 284.537 113.208C284.48 113.013 284.427 112.864 284.375 112.716C284.352 110.545 282.141 108.184 279.921 108.227C278.72 108.251 277.493 108.103 276.327 108.904C275.193 109.674 274.416 110.571 274.064 111.799C273.872 112.581 273.681 113.364 273.452 114.276C273.399 114.843 273.385 115.279 273.37 115.716C273.361 119.884 273.353 124.052 273.341 128.385C273.348 129.324 273.357 130.098 273.366 130.873C273.356 130.95 273.347 131.027 273.248 131.167C269.948 131.243 266.738 131.258 263.528 131.272C263.474 131.122 263.421 130.972 263.366 130.678C263.354 125.121 263.344 119.708 263.334 114.295C263.343 114.104 263.353 113.913 263.358 113.577C263.24 112.87 263.128 112.308 263.015 111.746C262.959 111.675 262.902 111.604 262.861 111.445C262.277 109.921 261.412 108.762 259.793 108.384C259.793 108.384 259.786 108.401 259.765 108.35C259.638 108.286 259.533 108.271 259.428 108.257C259.316 108.23 259.204 108.202 258.969 108.138C258.295 108.13 257.744 108.158 257.193 108.186C257.082 108.194 256.97 108.201 256.74 108.217C256.343 108.334 256.066 108.443 255.789 108.552C255.658 108.601 255.527 108.65 255.301 108.743C254.759 109.191 254.312 109.597 253.864 110.002C253.819 110.038 253.774 110.073 253.675 110.187C253.414 110.656 253.207 111.048 253.001 111.439C253.001 111.439 253.005 111.442 252.96 111.469C252.895 111.596 252.875 111.695 252.855 111.794C252.627 112.822 252.398 113.851 252.151 115.028C252.126 117.217 252.11 119.257 252.114 121.297C252.121 124.549 252.142 127.8 252.157 131.051C252.117 131.115 252.077 131.178 251.903 131.242C248.555 131.239 245.342 131.235 242.129 131.232C242.071 131.041 242.013 130.85 242.021 130.57C242.113 130.128 242.16 129.775 242.16 129.423C242.164 120.04 242.164 110.657 242.162 101.274C242.162 100.919 242.137 100.564 242.124 100.209C242.429 100.149 242.735 100.038 243.04 100.037C246.002 100.025 248.964 100.031 252.017 100.118C252.108 101.021 252.108 101.838 252.108 102.944C252.551 102.471 252.8 102.206 253.049 101.94C253.853 101.131 254.786 100.563 255.845 100.102C257.245 99.4918 258.662 99.1473 260.329 99.1322C261.198 99.1239 261.913 99.1187 262.628 99.1135C262.708 99.1277 262.788 99.1418 262.98 99.1826C263.296 99.2316 263.501 99.2539 263.705 99.2761C266.533 99.6104 268.763 101.024 270.608 103.12C271.375 103.991 271.378 103.954 272.311 103.173C273.689 102.02 275.039 100.805 276.913 100.168C278.415 99.7906 279.795 99.4559 281.176 99.1213C281.257 99.1251 281.337 99.129 281.559 99.1321C282.355 99.1248 283.011 99.1183 283.667 99.1118C283.747 99.1209 283.827 99.13 284.033 99.1558C284.531 99.2227 284.903 99.273 285.276 99.3233C285.888 99.546 286.5 99.7687 287.233 100.024C287.997 100.399 288.643 100.737 289.283 101.087C289.673 101.3 290.053 101.533 290.437 101.757C291.031 102.494 291.647 103.215 292.212 103.973C293.824 106.139 294.486 108.618 294.553 111.447C294.56 117.319 294.569 123.026 294.578 128.733C294.571 129.041 294.564 129.349 294.557 129.777C294.564 129.926 294.571 129.955 294.578 129.984C294.569 130.314 294.56 130.643 294.535 131.055C294.494 131.165 294.491 131.197 294.511 131.23C294.511 131.23 294.444 131.254 294.329 131.247C291.056 131.242 287.898 131.243 284.741 131.245C284.72 130.684 284.681 130.124 284.68 129.563C284.671 124.525 284.668 119.487 284.668 114.327C284.672 114.206 284.642 114.124 284.642 114.124Z" fill="#77C4B4"/>
<path d="M321.293 100.193C322.178 100.68 323.063 101.168 324.042 101.718C324.552 102.094 324.969 102.407 325.386 102.72C325.398 102.78 325.43 102.827 325.541 102.915C325.651 102.996 325.703 103.024 325.754 103.051C325.754 103.051 325.75 103.061 325.774 103.112C326.021 103.365 326.244 103.567 326.466 103.769C326.466 103.769 326.463 103.775 326.478 103.817C326.541 103.892 326.59 103.925 326.638 103.958C326.638 103.958 326.642 103.956 326.664 104.01C326.962 104.412 327.264 104.741 327.509 105.109C328.149 106.07 328.765 107.048 329.391 108.02C329.414 108.171 329.438 108.323 329.499 108.594C329.881 109.8 330.226 110.887 330.57 111.974C330.571 112.055 330.572 112.135 330.578 112.338C330.607 112.538 330.631 112.618 330.653 112.77C330.749 114.219 330.848 115.594 330.947 116.97C330.876 117.637 330.806 118.303 330.666 119.067C330.277 120.337 329.957 121.511 329.636 122.684C328.918 123.947 328.223 125.222 327.47 126.463C327.229 126.86 326.835 127.163 326.437 127.595C326.287 127.796 326.212 127.909 326.137 128.023C326.085 128.065 326.033 128.107 325.899 128.199C325.669 128.35 325.522 128.451 325.374 128.552C325.316 128.557 325.268 128.581 325.16 128.69C323.939 129.51 322.787 130.265 321.635 131.02C320.643 131.339 319.662 131.696 318.655 131.959C318.115 132.1 317.532 132.08 316.818 132.133C315.774 132.137 314.879 132.142 313.984 132.146C313.798 132.122 313.611 132.098 313.297 132.04C312.431 131.869 311.692 131.733 310.953 131.598C310.269 131.368 309.584 131.139 308.798 130.872C307.801 130.196 306.907 129.558 305.966 128.887C305.966 129.409 305.966 129.876 305.966 130.342C305.939 130.621 305.911 130.9 305.748 131.209C302.461 131.253 299.309 131.266 296.157 131.279C296.126 131.272 296.095 131.266 296.013 131.203C295.962 131.146 295.937 131.061 295.937 131.061C295.947 130.926 295.957 130.79 295.966 130.505C295.967 116.029 295.97 101.703 295.973 87.3771C295.973 87.081 295.988 86.7849 295.996 86.4888C299.257 86.4888 302.518 86.4888 305.955 86.4888C305.955 91.6416 305.955 96.7734 305.955 102.119C307.041 101.443 307.905 100.904 308.853 100.332C309.091 100.275 309.244 100.253 309.398 100.23C309.398 100.23 309.468 100.239 309.565 100.216C310.513 99.9217 311.365 99.6493 312.218 99.3768C312.814 99.3018 313.41 99.2268 314.166 99.1483C315.16 99.1339 315.995 99.123 316.83 99.112C317.055 99.1389 317.279 99.1657 317.63 99.2235C318.935 99.5673 320.114 99.8802 321.293 100.193ZM316.854 108.287C315.535 107.655 314.142 107.403 312.699 107.616C308.302 108.267 305.565 111.94 305.975 116.596C306.442 121.906 311.768 125.175 316.642 123.099C319.444 121.906 320.662 119.571 321.052 116.678C321.516 113.24 319.846 109.803 316.854 108.287Z" fill="#77C4B4"/>
<path d="M354.817 130.522C354.006 130.828 353.195 131.134 352.266 131.5C351.668 131.689 351.19 131.818 350.712 131.948C350.631 131.95 350.55 131.951 350.349 131.96C350.032 132.017 349.837 132.068 349.641 132.12C349.449 132.123 349.258 132.126 348.924 132.132C348.592 132.153 348.401 132.171 348.211 132.19C347.786 132.182 347.361 132.174 346.782 132.156C345.376 131.963 344.122 131.781 342.869 131.599C341.483 130.893 340.089 130.205 338.719 129.47C338.355 129.275 338.067 128.937 337.699 128.555C336.547 127.162 335.44 125.879 334.333 124.596C334.096 124.057 333.859 123.519 333.617 122.848C333.375 122.214 333.138 121.712 332.901 121.21C332.715 120.177 332.519 119.145 332.35 118.109C332.306 117.84 332.343 117.559 332.343 117.141C332.32 116.755 332.298 116.51 332.275 116.266C332.282 115.954 332.289 115.643 332.307 115.184C332.317 114.79 332.314 114.544 332.312 114.298C332.326 114.106 332.34 113.915 332.384 113.597C332.439 113.208 332.466 112.946 332.492 112.685C332.589 110.697 333.313 108.897 334.224 107.046C335.083 105.845 335.878 104.732 336.672 103.618C336.729 103.61 336.771 103.581 336.873 103.483C338.69 102.304 340.434 101.172 342.178 100.041C342.178 100.041 342.258 100.039 342.358 100.018C342.893 99.8363 343.328 99.6751 343.762 99.5139C343.842 99.509 343.922 99.504 344.131 99.4858C344.806 99.361 345.352 99.2493 345.897 99.1377C346.147 99.133 346.397 99.1282 346.802 99.1232C347.614 99.1212 348.271 99.1194 348.929 99.1177C349.008 99.1299 349.088 99.1422 349.289 99.1763C350.319 99.3588 351.228 99.5194 352.137 99.68C352.137 99.68 352.191 99.717 352.276 99.7536C353.967 100.58 355.573 101.37 357.029 102.085C357.029 102.16 357.013 101.97 357.033 101.785C357.064 101.494 357.118 101.206 357.163 100.917C357.189 100.656 357.215 100.395 357.252 100.031C360.495 100.031 363.716 100.031 367.031 100.117C367.122 110.546 367.118 120.89 367.114 131.233C367.114 131.233 367.115 131.234 367.031 131.234C363.795 131.247 360.643 131.26 357.49 131.273C357.454 131.266 357.417 131.259 357.315 131.166C357.248 130.357 357.248 129.633 357.248 128.801C356.349 129.437 355.583 129.98 354.817 130.522ZM350.49 107.646C348.282 107.364 346.293 107.887 344.639 109.391C342.348 111.474 341.828 114.159 342.152 117.108C342.703 122.122 347.93 125.146 352.535 123.105C356.01 121.565 357.892 117.701 357.033 113.872C356.268 110.462 353.788 108.054 350.49 107.646Z" fill="#77C4B4"/>
<path d="M167.198 108.57C166.005 108.805 164.81 109.031 163.62 109.279C162.973 109.414 162.336 109.596 161.691 109.74C160.949 109.906 160.363 110.001 160.045 108.959C159.658 107.694 157.89 106.593 156.312 106.455C155.661 106.399 155.005 106.408 154.216 106.417C152.766 106.446 151.874 107.144 151.682 108.326C151.505 109.416 152.027 110.187 153.331 110.583C154.207 110.85 155.119 110.998 156.014 111.2C157.784 111.52 159.598 111.694 161.312 112.205C162.752 112.635 164.31 112.837 165.566 113.823C166.105 114.246 166.781 114.492 167.327 114.909C167.626 115.137 167.781 115.553 168.078 115.971C169.274 117.478 169.792 119.126 169.979 120.898C169.974 120.976 169.968 121.053 169.962 121.268C169.702 122.998 169.442 124.591 169.182 126.183C168.89 126.568 168.628 126.98 168.301 127.332C167.623 128.064 166.911 128.765 166.116 129.537C165.055 130.078 164.091 130.562 163.126 131.045C162.759 131.165 162.391 131.285 161.887 131.418C161.026 131.604 160.301 131.776 159.577 131.948C159.496 131.949 159.415 131.95 159.217 131.958C159.025 131.982 158.949 132 158.874 132.018C158.79 132.025 158.707 132.032 158.523 132.047C158.332 132.079 158.241 132.102 158.15 132.125C158.016 132.125 157.882 132.124 157.599 132.127C154.954 131.945 152.457 131.759 149.961 131.573C149.961 131.573 149.948 131.588 149.923 131.541C149.799 131.482 149.698 131.469 149.597 131.455C145.128 130.413 142.058 127.913 141.004 123.113C141.817 122.959 142.609 122.81 143.53 122.624C146.049 122.113 148.439 121.637 150.829 121.162C150.85 121.229 150.871 121.295 150.925 121.474C151.447 123.215 152.691 124.299 154.228 124.434C154.534 124.516 154.841 124.597 155.278 124.717C156.145 124.717 156.88 124.678 157.615 124.638C157.645 124.64 157.676 124.642 157.807 124.639C158.009 124.587 158.109 124.54 158.21 124.493C158.903 124.12 159.749 123.978 160.043 123.052C160.275 122.319 160.357 121.665 159.659 121.009C158.811 120.623 158.034 120.323 157.257 120.022C155.824 119.771 154.391 119.521 152.851 119.209C152.168 119.028 151.591 118.908 151.014 118.789C150.937 118.771 150.86 118.753 150.675 118.7C150.36 118.638 150.154 118.612 149.948 118.585C148.857 118.225 147.764 117.868 146.676 117.5C146.443 117.421 146.225 117.299 145.933 117.102C145.388 116.634 144.911 116.259 144.433 115.884C144.433 115.884 144.423 115.898 144.415 115.852C144.364 115.754 144.311 115.736 144.246 115.754C144.194 115.712 144.142 115.671 144.058 115.533C143.872 115.281 143.72 115.126 143.567 114.971C143.567 114.971 143.56 115.01 143.548 114.933C143.256 114.426 142.974 113.995 142.684 113.522C142.675 113.48 142.632 113.404 142.629 113.339C142.466 112.875 142.305 112.475 142.145 112.075C142.136 112.012 142.128 111.949 142.109 111.774C142.035 111.35 141.972 111.039 141.908 110.727C141.91 110.648 141.912 110.568 141.916 110.349C141.913 109.671 141.908 109.132 141.902 108.592C141.923 108.461 141.944 108.331 142.004 108.079C142.175 107.277 142.307 106.595 142.44 105.914C143.087 104.953 143.734 103.992 144.47 102.962C145.062 102.42 145.564 101.948 146.067 101.476C146.782 101.122 147.496 100.767 148.344 100.389C149.325 100.078 150.172 99.7903 151.02 99.503C151.1 99.4999 151.18 99.4969 151.37 99.4868C151.532 99.4367 151.583 99.3936 151.634 99.3504C151.855 99.2823 152.073 99.1736 152.298 99.1531C153.169 99.0736 154.043 98.9597 154.914 98.9762C155.989 98.9967 157.061 99.1298 158.134 99.2244C158.426 99.2501 158.715 99.3122 159.121 99.394C159.409 99.4491 159.581 99.4679 159.753 99.4866C159.753 99.4866 159.835 99.5189 159.925 99.5671C160.524 99.7386 161.032 99.8618 161.541 99.985C161.609 100.007 161.676 100.029 161.841 100.1C162.293 100.29 162.651 100.421 163 100.573C163.818 100.931 164.632 101.299 165.447 101.663C166.014 102.304 166.589 102.939 167.145 103.589C167.54 104.051 167.939 104.515 168.282 105.014C168.609 105.489 168.866 106.012 169.151 106.62C169.231 107.142 169.315 107.558 169.404 108.008C168.644 108.202 167.921 108.386 167.198 108.57Z" fill="#77C4B4"/>
<path d="M182.779 99.5095C183.206 99.476 183.633 99.4426 184.167 99.383C184.302 99.3445 184.331 99.3322 184.36 99.3198C184.439 99.32 184.519 99.3202 184.733 99.3123C186.063 99.2361 187.259 99.1681 188.454 99.1001C189.216 99.1841 189.977 99.2681 190.87 99.396C192.057 99.7417 193.113 100.043 194.17 100.345C194.364 100.393 194.559 100.44 194.837 100.523C196.022 101.222 197.122 101.885 198.23 102.602C198.3 102.734 198.363 102.812 198.452 102.947C199.295 103.843 200.188 104.622 200.905 105.54C201.55 106.366 202.001 107.343 202.537 108.254C202.591 108.393 202.644 108.531 202.731 108.783C202.997 109.591 203.229 110.286 203.498 111.091C200.344 111.85 197.281 112.587 194.193 113.331C194.095 113.063 194.03 112.902 193.979 112.738C192.513 108.096 187.564 106.317 183.445 108.952C180.044 111.128 179.074 116.293 181.222 120.079C183.62 124.304 191.066 124.923 193.553 119.953C193.866 119.33 194.116 118.675 194.401 118.02C197.459 118.688 200.45 119.342 203.521 120.013C203.18 121.058 202.887 121.956 202.571 122.894C202.547 122.966 202.546 122.997 202.499 123.069C201.644 124.446 200.836 125.782 200.037 127.123C200.047 127.13 200.034 127.11 199.971 127.117C199.541 127.502 199.174 127.88 198.756 128.267C198.601 128.354 198.498 128.432 198.395 128.509C198.395 128.509 198.449 128.549 198.364 128.543C197.616 129.006 196.953 129.476 196.29 129.945C196.193 129.983 196.096 130.021 195.906 130.112C194.89 130.573 193.967 130.982 193.044 131.39C192.976 131.396 192.908 131.401 192.722 131.421C191.996 131.607 191.388 131.78 190.78 131.952C190.699 131.953 190.618 131.954 190.434 131.965C190.304 131.986 190.277 131.998 190.249 132.01C190.168 132.016 190.087 132.022 189.898 132.042C189.645 132.084 189.499 132.111 189.352 132.138C189.272 132.136 189.192 132.133 188.98 132.13C188.602 132.15 188.357 132.17 188.112 132.191C187.807 132.183 187.501 132.176 187.047 132.157C186.647 132.147 186.396 132.148 186.144 132.149C185.86 132.125 185.576 132.101 185.16 132.046C184.27 131.88 183.512 131.744 182.754 131.609C181.464 131.129 180.073 130.818 178.908 130.126C177.426 129.246 176.115 128.072 174.758 126.99C174.409 126.712 174.164 126.303 173.811 125.879C173.737 125.758 173.709 125.722 173.669 125.695C173.669 125.695 173.661 125.703 173.672 125.648C173.556 125.433 173.43 125.271 173.303 125.11C173.295 125.081 173.287 125.053 173.224 124.933C172.52 123.441 171.87 122.04 171.22 120.64C171.089 120.358 170.955 120.077 170.819 119.757C170.816 119.719 170.806 119.643 170.843 119.595C170.795 117.609 170.604 115.668 170.662 113.735C170.699 112.49 171.101 111.255 171.34 110.016C171.78 109.037 171.946 107.96 172.71 107.093C173.61 106.072 174.237 104.8 175.18 103.828C176.022 102.96 177.128 102.345 178.127 101.632C178.484 101.378 178.868 101.163 179.37 100.926C180.172 100.627 180.845 100.333 181.519 100.039C181.519 100.039 181.509 100.03 181.58 100.038C182.026 99.8673 182.402 99.6884 182.779 99.5095Z" fill="#77C4B4"/>
<path d="M221.619 110.345C221.54 110.354 221.461 110.363 221.268 110.393C220.945 110.514 220.736 110.614 220.527 110.713C218.777 111.385 217.446 112.548 216.418 114.25C216.006 115.271 215.671 116.199 215.336 117.126C215.271 117.435 215.207 117.744 215.101 118.182C214.999 119.171 214.94 120.029 214.88 120.888C214.87 121.43 214.86 121.972 214.847 122.677C214.853 124.687 214.862 126.535 214.871 128.382C214.86 129.265 214.849 130.147 214.753 131.123C211.404 131.212 208.141 131.207 204.878 131.203C204.878 131.203 204.869 131.216 204.871 131.136C204.874 124.822 204.874 118.586 204.874 112.35C204.874 108.49 204.874 104.63 204.874 100.769C204.874 100.391 204.788 99.9588 205.399 99.9988C205.533 100.007 205.667 100.015 205.95 100.024C208.994 100.025 211.888 100.025 214.875 100.025C214.875 101.295 214.875 102.446 214.862 103.67C214.856 103.992 214.863 104.24 214.879 104.552C215.179 104.897 215.462 105.119 215.679 104.494C215.827 104.377 215.925 104.278 216.072 104.151C216.368 103.778 216.616 103.433 216.911 103.068C217.043 102.941 217.127 102.834 217.268 102.706C218.619 101.459 220.197 100.708 221.802 100.002C221.883 100.015 221.963 100.028 222.145 100.031C222.311 100.023 222.359 99.9952 222.389 99.9388C222.389 99.9388 222.411 99.9483 222.495 99.9464C224.21 99.8805 225.842 99.8165 227.475 99.7524C227.591 100.094 227.707 100.435 227.8 100.91C227.754 101.896 227.732 102.747 227.709 103.598C227.698 103.788 227.686 103.979 227.659 104.308C227.599 105.827 227.554 107.208 227.509 108.588C227.512 108.689 227.515 108.79 227.522 108.947C227.556 109.088 227.587 109.172 227.617 109.257C227.446 109.444 227.276 109.63 226.965 109.817C226.578 109.827 226.33 109.838 226.082 109.848C225.947 109.84 225.813 109.832 225.533 109.825C224.765 109.88 224.142 109.935 223.52 109.99C223.402 109.993 223.283 109.995 223.045 110.005C222.764 110.059 222.604 110.106 222.443 110.153C222.327 110.164 222.211 110.175 221.987 110.197C221.793 110.254 221.706 110.299 221.619 110.345Z" fill="#77C4B4"/>
<path d="M236.602 85.1931C237.035 85.3697 237.469 85.5464 238.003 85.779C238.5 86.1505 238.896 86.466 239.292 86.7815C239.482 87.0755 239.671 87.3695 239.936 87.751C240.242 88.389 240.471 88.9393 240.701 89.4897C240.702 89.5717 240.703 89.6536 240.712 89.8723C240.73 90.4279 240.74 90.8468 240.75 91.2658C240.719 91.4523 240.687 91.6388 240.613 91.9406C240.548 92.2066 240.525 92.3572 240.502 92.5077C240.502 92.5077 240.517 92.5212 240.469 92.5548C239.117 95.4378 236.439 96.7331 233.404 95.9413C231.234 95.3754 229.802 94.0454 229.316 91.8002C229.309 91.6679 229.302 91.5356 229.29 91.2628C229.276 90.8152 229.266 90.508 229.257 90.2007C229.278 90.0129 229.299 89.8251 229.361 89.5199C229.544 88.8372 229.686 88.2718 229.828 87.7064C230.385 87.1248 230.942 86.5432 231.619 85.9404C233.259 85.0027 234.885 84.7925 236.602 85.1931Z" fill="#77C4B4"/>
<path d="M75.9959 129.731C75.9959 129.731 75.9872 129.672 75.9618 129.586C75.0515 127.934 75.0004 126.255 75.4663 124.59C75.6617 123.892 76.1386 123.205 76.6557 122.678C78.3618 120.939 80.5216 121.124 82.5704 121.705C84.8472 122.35 85.9323 124.748 85.4856 127.517C85.1699 129.474 83.8774 131.08 82.2805 131.378C79.9394 131.816 77.7146 131.714 75.9959 129.731Z" fill="#77C4B4"/>
<path d="M157.567 124.59C156.88 124.678 156.145 124.717 155.349 124.717C156.032 124.632 156.776 124.587 157.567 124.59Z" fill="#D4E5F5"/>
<path d="M82.6763 120.63C82.8671 120.548 83.0932 120.512 83.3194 120.476C83.3188 120.602 83.3183 120.729 83.3178 120.855C83.1157 120.795 82.9136 120.736 82.6763 120.63Z" fill="#FBF3D6"/>
<path d="M257.27 108.201C257.744 108.158 258.295 108.131 258.911 108.145C258.433 108.197 257.89 108.206 257.27 108.201Z" fill="#D4E5F5"/>
<path d="M141.857 108.646C141.908 109.131 141.913 109.671 141.905 110.29C141.865 109.813 141.838 109.256 141.857 108.646Z" fill="#D4E5F5"/>
<path d="M332.433 112.701C332.466 112.946 332.439 113.208 332.379 113.525C332.354 113.292 332.363 113.004 332.433 112.701Z" fill="#D4E5F5"/>
<path d="M255.863 108.562C256.066 108.443 256.343 108.334 256.685 108.235C256.479 108.355 256.208 108.464 255.863 108.562Z" fill="#D4E5F5"/>
<path d="M186.184 132.19C186.396 132.148 186.647 132.147 186.971 132.167C186.77 132.202 186.497 132.216 186.184 132.19Z" fill="#D4E5F5"/>
<path d="M284.369 112.764C284.427 112.865 284.479 113.013 284.479 113.161C284.406 113.044 284.385 112.928 284.369 112.764Z" fill="#D4E5F5"/>
<path d="M332.241 116.314C332.298 116.51 332.32 116.755 332.331 117.072C332.281 116.884 332.244 116.623 332.241 116.314Z" fill="#D4E5F5"/>
<path d="M188.16 132.227C188.357 132.17 188.602 132.15 188.92 132.142C188.731 132.19 188.469 132.226 188.16 132.227Z" fill="#D4E5F5"/>
<path d="M332.271 114.341C332.314 114.544 332.317 114.79 332.297 115.106C332.26 114.913 332.245 114.648 332.271 114.341Z" fill="#D4E5F5"/>
<path d="M330.759 112.633C330.768 112.682 330.712 112.693 330.684 112.695C330.631 112.618 330.607 112.539 330.591 112.397C330.649 112.418 330.699 112.501 330.759 112.633Z" fill="#D4E5F5"/>
<path d="M158.152 124.482C158.109 124.54 158.009 124.587 157.851 124.626C157.894 124.57 157.994 124.521 158.152 124.482Z" fill="#D4E5F5"/>
<path d="M284.624 114.14C284.642 114.124 284.672 114.206 284.652 114.245C284.593 114.248 284.584 114.205 284.624 114.14Z" fill="#D4E5F5"/>
<path d="M325.735 103.012C325.703 103.024 325.651 102.997 325.582 102.928C325.627 102.893 325.677 102.922 325.735 103.012Z" fill="#D4E5F5"/>
<path d="M326.624 103.917C326.59 103.926 326.542 103.893 326.481 103.816C326.529 103.788 326.576 103.823 326.624 103.917Z" fill="#D4E5F5"/>
<path d="M294.522 131.211C294.49 131.197 294.493 131.166 294.539 131.121C294.559 131.136 294.551 131.165 294.522 131.211Z" fill="#D4E5F5"/>
<path d="M105.564 108.705C103.065 108.611 101.2 107.417 100.828 105.439C100.334 102.814 100.538 100.622 102.772 99.2683C103.515 98.8187 104.502 98.5834 105.379 98.5766C112.209 98.5231 119.04 98.5503 125.871 98.5507C128.251 98.5509 130.137 100.108 130.384 102.47C130.496 103.539 130.488 104.709 130.165 105.715C129.594 107.491 128.241 108.551 126.319 108.654C124.838 108.734 123.351 108.709 121.866 108.71C116.461 108.713 111.056 108.708 105.564 108.705Z" fill="#77C4B4"/>
<path d="M115.477 109.12C115.472 109.278 115.397 109.435 115.323 109.593C115.219 109.476 115.114 109.359 115 109.181C115.129 109.12 115.268 109.12 115.477 109.12Z" fill="#F5F8FF"/>
<path d="M117.839 118.029C116.762 119.144 115.452 119.525 113.908 119.491C110.913 119.425 107.914 119.411 104.92 119.492C102.591 119.555 101.119 118.056 100.815 116.736C100.291 114.46 100.533 112.299 102.67 111.126C103.19 110.84 103.847 110.686 104.444 110.675C107.795 110.617 111.146 110.613 114.498 110.609C116.917 110.606 118.572 112.279 118.595 114.683C118.606 115.819 118.644 116.95 117.838 117.956C117.827 118.019 117.847 118.042 117.839 118.029Z" fill="#77C4B4"/>
<path d="M95.3912 131.573C94.4141 131.538 93.5261 131.494 92.6374 131.469C91.0326 131.425 89.0268 129.569 88.8673 127.739C88.7503 126.396 88.6529 125.072 89.3197 123.825C90.1288 122.312 91.3895 121.43 93.0986 121.423C100.227 121.392 107.357 121.368 114.485 121.449C116.376 121.471 117.751 122.67 118.318 124.43C118.841 126.053 118.869 127.781 117.938 129.347C116.937 131.033 115.352 131.581 113.481 131.577C107.481 131.566 101.48 131.573 95.3912 131.573Z" fill="#77C4B4"/>
<path d="M239.877 129.937C239.94 130.115 239.948 130.25 239.942 130.451C239.55 130.578 239.173 130.69 238.796 130.692C236.449 130.709 234.102 130.704 231.755 130.699C230.584 130.697 230.36 130.466 230.36 129.293C230.359 119.963 230.375 110.633 230.336 101.303C230.332 100.361 230.618 100.167 231.491 100.188C233.897 100.246 236.305 100.237 238.711 100.191C239.471 100.176 239.65 100.431 239.648 101.155C239.626 110.366 239.631 119.577 239.641 128.789C239.641 129.158 239.76 129.527 239.877 129.937Z" fill="#77C4B4"/>
</g>
<defs>
<clipPath id="clip0_1034_1699">
<rect width="442" height="217" fill="white"/>
</clipPath>
</defs>
</svg>
