<svg width="158" height="158" viewBox="0 0 158 158" fill="none" xmlns="http://www.w3.org/2000/svg">
<g clip-path="url(#clip0_1034_1856)">
<path d="M154.024 77.5347C154.033 77.8021 154.049 78.0696 154.049 78.337C154.05 95.6152 154.056 112.893 154.041 130.171C154.039 132.128 153.211 133.807 152.055 135.349C150.611 137.275 148.454 138.118 146.401 139.123C145.803 139.416 145.2 139.702 144.6 139.992C141.487 141.497 138.376 143.004 135.262 144.506C132.706 145.738 130.147 146.965 127.589 148.193C125.094 149.391 122.614 150.623 120.096 151.774C118.696 152.414 117.264 153.021 115.791 153.461C113.471 154.152 111.267 153.651 109.203 152.45C108.999 152.332 108.791 152.22 108.62 152.066C109.498 152.209 110.342 152.391 111.246 152.577C111.642 152.524 111.98 152.483 112.312 152.41C114.72 151.876 116.593 149.693 116.595 147.312C116.605 135.853 116.592 124.394 116.592 112.867C116.597 101.434 116.597 90.0683 116.598 78.703C116.598 78.4116 116.614 78.1201 116.683 77.8306C117.128 77.8815 117.514 77.9769 117.899 77.9696C118.644 77.9555 119.389 77.8378 120.134 77.845C122.008 77.8631 123.881 77.9269 125.755 77.9712C125.828 77.9729 125.901 77.9601 125.974 77.9584C127.401 77.9236 128.829 77.8594 130.256 77.8627C132.14 77.8669 134.023 77.9363 135.907 77.9543C137.066 77.9654 138.225 77.9173 139.383 77.9258C140.05 77.9307 140.717 78.0412 141.382 78.0231C142.546 77.9914 143.708 77.8383 144.871 77.8418C147.22 77.8489 149.568 77.9634 151.916 77.9535C152.62 77.9505 153.322 77.6817 154.024 77.5347Z" fill="#77C4B4"/>
<path d="M154.034 77.4673C153.322 77.682 152.62 77.9508 151.916 77.9538C149.568 77.9637 147.22 77.8493 144.871 77.8421C143.708 77.8386 142.546 77.9917 141.382 78.0234C140.717 78.0415 140.05 77.9311 139.383 77.9262C138.225 77.9176 137.066 77.9657 135.907 77.9546C134.023 77.9366 132.14 77.8673 130.256 77.863C128.828 77.8597 127.401 77.9239 125.974 77.9587C125.901 77.9604 125.828 77.9733 125.755 77.9715C123.881 77.9272 122.008 77.8634 120.134 77.8453C119.389 77.8382 118.644 77.9559 117.899 77.9699C117.514 77.9772 117.128 77.8819 116.672 77.7631C116.601 76.5984 116.6 75.5036 116.599 74.4087C116.595 64.7253 116.592 55.042 116.595 45.2901C116.599 33.9851 116.602 22.7488 116.583 11.5124C116.582 10.8925 116.408 10.2728 116.311 9.59892C115.863 8.2285 115.016 7.24383 113.796 6.50407C112.44 5.71413 111.052 5.53072 109.583 5.96919C109.288 6.05726 108.975 6.08439 108.67 6.13962C110.292 5.03049 112.11 4.44416 114.046 4.57394C115.303 4.65824 116.615 4.94474 117.763 5.45604C120.922 6.86412 124.004 8.44412 127.122 9.94518C130.991 11.8077 134.866 13.657 138.737 15.5163C141.208 16.7035 143.683 17.884 146.142 19.096C147.509 19.7696 148.893 20.4275 150.187 21.2254C151.94 22.3065 153.005 23.9576 153.618 26.0104C153.662 26.1834 153.696 26.2585 153.731 26.3336C153.731 26.3336 153.753 26.3976 153.757 26.4834C153.8 26.7343 153.839 26.8994 153.878 27.0646C153.878 27.0646 153.899 27.1288 153.903 27.232C153.946 28.2689 153.985 29.2028 154.024 30.1367C154.032 30.2822 154.047 30.4278 154.047 30.5734C154.047 46.1821 154.046 61.7909 154.034 77.4673Z" fill="#77C4B4"/>
<path d="M53.382 101.829C51.6632 100.274 49.9444 98.72 48.1544 97.1081C47.4984 96.5012 46.9222 95.9424 46.3273 95.4042C43.316 92.6801 40.2901 89.9721 37.2884 87.2374C34.7363 84.9122 32.2158 82.5525 29.667 80.2237C29.2792 79.8694 28.8137 79.6 28.3841 79.2913C28.2775 79.1127 28.2063 78.8952 28.059 78.7614C25.5737 76.5036 23.078 74.2573 20.5868 72.0059C19.9766 71.4544 19.3731 70.8954 18.7687 70.3375C16.2081 67.9734 13.6515 65.6049 11.087 63.2451C9.41456 61.7062 7.75646 60.1504 6.04619 58.6544C3.78376 56.6755 3.57872 52.4433 5.54775 50.283C6.41045 49.3365 7.39546 48.5009 8.33153 47.622C8.92821 47.0618 9.54066 46.5183 10.1396 45.9605C11.5333 44.6625 12.9069 43.3424 14.3185 42.0643C16.0529 40.4939 18.0542 40.044 20.3466 40.5842C21.8156 40.9304 22.816 41.9423 23.95 42.7779C26.4264 44.6025 28.908 46.4207 31.3587 48.2796C33.8123 50.1408 36.2192 52.0636 38.6688 53.9304C40.4497 55.2876 42.2764 56.5845 44.0643 57.9328C45.3976 58.9382 46.7015 59.9827 48.087 61.0691C50.1112 62.6543 52.0532 64.198 54.025 65.7027C59.2118 69.661 64.4083 73.6068 69.61 77.5456C70.362 78.1151 71.1638 78.619 71.9683 79.1974C72.1854 79.3866 72.3767 79.5317 72.5681 79.6766C74.921 81.4589 77.273 83.2422 79.6269 85.023C82.266 87.0195 84.9089 89.0111 87.5462 91.0099C90.7747 93.4567 94.0039 95.9028 97.2229 98.3619C98.3824 99.2476 99.5135 100.17 100.675 101.12C100.8 101.198 100.907 101.233 101.023 101.266C101.03 101.265 101.034 101.281 101.024 101.337C101.104 102.008 100.772 102.147 100.24 102.113C98.7974 102.023 97.3544 101.909 95.9102 101.883C94.0828 101.849 92.254 101.89 90.4259 101.907C88.5598 101.923 86.6937 101.947 84.8277 101.969C84.4869 101.973 84.146 101.992 83.8054 101.986C83.0353 101.974 82.2653 101.95 81.4953 101.933C81.1603 101.926 80.824 101.907 80.4903 101.927C79.6423 101.977 78.796 102.076 77.9476 102.096C77.4765 102.108 77.0015 101.951 76.53 101.961C75.5349 101.98 74.5325 102.166 73.5486 102.088C72.2221 101.983 70.9197 101.91 69.5886 102.088C68.8168 102.192 68.0083 101.982 67.2169 101.988C65.7886 102 64.361 102.084 62.9327 102.108C62.0632 102.122 61.1926 102.089 60.323 102.062C59.8424 102.047 59.3625 102.003 58.8827 101.967C58.6678 101.951 58.4525 101.89 58.2398 101.9C56.6187 101.978 54.9969 102.163 53.382 101.829Z" fill="#6BB8A8"/>
<path d="M53.4028 101.874C54.997 102.163 56.6188 101.978 58.2399 101.9C58.4526 101.89 58.6679 101.951 58.8828 101.967C59.3626 102.003 59.8424 102.047 60.3231 102.062C61.1927 102.089 62.0633 102.122 62.9327 102.108C64.3611 102.084 65.7887 102 67.217 101.988C68.0084 101.982 68.8168 102.192 69.5886 102.088C70.9198 101.91 72.2222 101.983 73.5487 102.088C74.5326 102.166 75.535 101.981 76.53 101.961C77.0015 101.951 77.4766 102.108 77.9477 102.097C78.7961 102.076 79.6423 101.977 80.4904 101.927C80.8241 101.907 81.1604 101.926 81.4953 101.933C82.2654 101.95 83.0353 101.974 83.8055 101.986C84.1461 101.992 84.487 101.973 84.8278 101.969C86.6938 101.947 88.5598 101.923 90.4259 101.907C92.2541 101.891 94.0829 101.85 95.9103 101.883C97.3545 101.909 98.7975 102.023 100.24 102.113C100.772 102.147 101.104 102.009 101.063 101.37C101.875 101.915 102.647 102.475 103.402 103.057C105.805 104.911 108.202 106.772 110.6 108.631C111.138 109.049 111.672 109.472 112.203 109.953C112.153 110.374 112.107 110.735 112.064 111.096C111.904 112.441 111.755 113.787 111.584 115.13C111.466 116.065 111.293 116.993 111.191 117.93C111.1 118.767 111.092 119.613 111.015 120.451C110.927 121.41 110.841 122.372 110.684 123.32C110.538 124.196 110.316 125.061 110.092 125.922C110.011 126.233 109.745 126.507 109.705 126.816C109.615 127.512 109.617 128.22 109.575 128.923C109.537 129.548 109.712 130.332 109.402 130.767C108.583 131.921 108.682 133.165 108.708 134.42C108.731 135.54 108.41 136.329 107.226 136.695C106.337 136.969 106.075 137.696 106.341 138.575C106.436 138.889 106.615 139.268 106.518 139.53C106.315 140.082 105.997 140.606 105.642 141.078C105.485 141.287 105.135 141.41 104.853 141.455C104.091 141.577 103.319 141.646 102.549 141.717C102.286 141.742 102.013 141.741 101.752 141.701C100.205 141.466 98.6647 141.557 97.1252 141.768C95.7708 140.528 94.4167 139.287 93.062 138.046C90.7447 135.925 88.4294 133.801 86.1088 131.683C84.5391 130.25 82.958 128.83 81.3886 127.397C79.0505 125.262 76.7214 123.117 74.3824 120.983C72.8663 119.6 71.3398 118.228 69.8174 116.852C67.292 114.569 64.7623 112.292 62.2419 110.003C60.9708 108.849 59.7188 107.674 58.4532 106.514C56.7792 104.98 55.1003 103.451 53.4028 101.874Z" fill="#6BB8A8"/>
<path d="M113.829 6.53906C115.016 7.24351 115.863 8.22818 116.26 9.61087C115.806 10.3402 115.224 10.9556 115.028 11.676C114.615 13.1972 114.304 14.7624 114.13 16.3295C113.812 19.2003 113.646 22.0876 113.375 24.9641C113.113 27.7401 112.796 30.5109 112.512 33.2849C112.475 33.6443 112.481 34.0095 112.488 34.3717C112.509 35.6365 112.587 36.8941 112.081 38.1163C111.833 38.7141 111.612 39.4002 111.655 40.0273C111.829 42.5431 111.127 44.9479 110.857 47.4053C110.75 48.3792 110.651 49.3392 109.904 50.0803C109.862 50.1216 109.878 50.2205 109.823 50.3173C109.581 50.522 109.397 50.719 109.185 50.8795C107.481 52.1683 105.766 53.4426 104.066 54.7357C100.128 57.7304 96.1994 60.7375 92.2606 63.7313C89.0876 66.143 85.9087 68.547 82.7259 70.9458C81.1542 72.1303 79.5678 73.2953 77.9233 74.468C76.948 74.5458 76.2031 74.2115 75.551 73.5895C75.2722 73.3235 74.9461 73.0989 74.6167 72.8957C73.0916 71.9547 71.558 71.0276 70.027 70.0964C69.8609 69.9954 69.7012 69.8747 69.5221 69.8055C67.7941 69.138 66.4687 67.8632 64.9827 66.8284C64.0101 66.1511 63.0018 65.5204 61.979 64.9207C60.912 64.2952 59.75 63.8178 58.7324 63.1246C56.3309 61.4886 53.9906 59.7628 51.6255 58.0734C53.2013 56.625 54.7767 55.1761 56.3532 53.7283C56.9402 53.1892 57.5329 52.6561 58.1176 52.1143C60.1529 50.2286 62.1778 48.3315 64.2225 46.456C65.6402 45.1556 67.0839 43.8837 68.5811 42.6253C68.6838 42.8865 68.7212 43.1216 68.7788 43.4822C69.5506 43.4296 70.3182 43.3298 71.0852 43.3346C72.7801 43.3451 74.4745 43.4241 76.1694 43.4423C76.8968 43.4501 77.6252 43.343 78.3529 43.3455C80.5985 43.3534 82.844 43.4022 85.0896 43.4091C86.6134 43.4138 88.1375 43.3529 89.6613 43.3605C91.836 43.3714 94.0104 43.4371 96.185 43.4413C97.2216 43.4434 98.2585 43.3597 99.2951 43.3108C99.9019 43.2822 100.509 43.2095 101.115 43.2195C102.68 43.2453 104.245 43.2901 105.809 43.3626C106.273 43.3841 106.36 43.1491 106.352 42.7928C106.315 41.2289 106.328 39.7021 107.128 38.2487C107.391 37.7695 107.367 37.1372 107.952 36.821C108.035 36.776 108.081 36.6152 108.097 36.5013C108.302 35.0422 108.466 33.5762 108.71 32.1238C108.894 31.0282 108.988 29.8511 109.479 28.8942C109.885 28.1048 110.085 27.3796 110.16 26.5249C110.286 25.1068 110.594 23.7052 110.725 22.2873C110.924 20.1219 111.014 17.9466 111.198 15.7796C111.274 14.8901 111.256 13.8818 111.68 13.1631C112.135 12.3929 112.206 11.6281 112.355 10.8314C112.422 10.4765 112.462 10.1095 112.585 9.77387C112.982 8.68915 113.412 7.61642 113.829 6.53906Z" fill="#63A89A"/>
<path d="M113.796 6.50376C113.412 7.61642 112.982 8.68916 112.585 9.77388C112.462 10.1096 112.422 10.4766 112.355 10.8314C112.206 11.6281 112.135 12.3929 111.68 13.1631C111.256 13.8818 111.274 14.8901 111.199 15.7796C111.014 17.9466 110.924 20.1219 110.725 22.2873C110.595 23.7052 110.286 25.1068 110.16 26.5249C110.085 27.3796 109.885 28.1048 109.479 28.8942C108.988 29.8511 108.894 31.0282 108.71 32.1238C108.466 33.5762 108.303 35.0422 108.097 36.5013C108.081 36.6152 108.035 36.776 107.952 36.821C107.367 37.1372 107.391 37.7695 107.128 38.2487C106.328 39.7022 106.315 41.229 106.352 42.7928C106.36 43.1491 106.273 43.3841 105.809 43.3626C104.245 43.2901 102.68 43.2453 101.115 43.2195C100.509 43.2095 99.902 43.2822 99.2952 43.3108C98.2586 43.3597 97.2217 43.4434 96.1851 43.4414C94.0105 43.4371 91.8361 43.3714 89.6614 43.3606C88.1376 43.3529 86.6135 43.4138 85.0897 43.4091C82.844 43.4022 80.5986 43.3534 78.353 43.3455C77.6253 43.343 76.8969 43.4501 76.1695 43.4423C74.4746 43.4241 72.7802 43.3451 71.0853 43.3346C70.3183 43.3298 69.5507 43.4296 68.7789 43.4822C68.7213 43.1216 68.6839 42.8866 68.626 42.604C69.401 41.7819 70.1963 41.0074 71.061 40.2514C71.2242 40.3122 71.3181 40.3544 71.412 40.3967C71.4031 40.2876 71.3942 40.1785 71.3853 40.0693C73.0348 38.5452 74.6835 37.0203 76.3341 35.4973C76.9564 34.9231 77.5858 34.3566 78.207 33.7812C80.2315 31.9058 82.2484 30.0223 84.2784 28.153C85.8964 26.6629 87.5292 25.1888 89.1557 23.708C91.3364 21.7227 93.5184 19.7389 95.6979 17.7524C97.3776 16.2216 99.0548 14.6881 100.732 13.155C102.424 11.6089 104.108 10.0534 105.81 8.51889C106.659 7.75307 107.543 7.02506 108.496 6.26035C108.621 6.2045 108.661 6.16824 108.701 6.13198C108.701 6.13198 108.689 6.14957 108.68 6.14444C108.975 6.08408 109.288 6.05694 109.583 5.96887C111.052 5.5304 112.44 5.71381 113.796 6.50376Z" fill="#63A89A"/>
<path d="M44.3256 100.032C42.1233 101.704 39.9181 103.372 37.7194 105.048C34.738 107.321 31.7697 109.611 28.7806 111.874C26.502 113.599 24.2277 115.332 21.8998 116.989C19.8757 118.43 16.6307 118.179 14.7732 116.515C13.0791 114.997 11.4157 113.444 9.72749 111.92C8.5089 110.819 7.21578 109.795 6.0594 108.633C5.01251 107.582 4.35166 106.312 4.22299 104.753C3.98408 101.858 5.43333 99.9065 7.56195 98.251C8.2479 97.7175 8.85807 97.0858 9.4968 96.4925C10.935 95.1565 12.3618 93.8081 13.8072 92.48C16.0346 90.4334 18.2736 88.3995 20.5078 86.3604C22.188 84.827 23.8667 83.292 25.5507 81.7627C25.7631 81.5697 26.0031 81.4071 26.3168 81.2344C26.9931 81.7462 27.6097 82.2264 28.1675 82.7674C29.5203 84.0796 30.8696 85.3971 32.174 86.7569C33.0634 87.6841 33.8615 88.6982 34.7277 89.6487C35.053 90.0057 35.4662 90.2809 35.8204 90.6137C37.3925 92.0902 38.5191 93.9849 40.2374 95.3261C40.3494 95.4136 40.4155 95.5575 40.5162 95.6625C41.6553 96.8504 42.8068 98.0268 43.9287 99.2307C44.1235 99.4397 44.1964 99.7623 44.3256 100.032Z" fill="#63A89A"/>
<path d="M97.1465 141.814C98.6646 141.557 100.205 141.466 101.752 141.701C102.013 141.741 102.286 141.742 102.549 141.717C103.319 141.646 104.091 141.577 104.853 141.455C105.135 141.41 105.485 141.287 105.642 141.079C105.997 140.606 106.315 140.082 106.518 139.531C106.615 139.268 106.436 138.889 106.341 138.575C106.075 137.697 106.337 136.969 107.226 136.695C108.41 136.329 108.731 135.54 108.708 134.42C108.682 133.165 108.583 131.921 109.402 130.768C109.712 130.332 109.537 129.548 109.575 128.923C109.617 128.22 109.615 127.512 109.705 126.816C109.745 126.507 110.011 126.233 110.092 125.922C110.316 125.061 110.538 124.196 110.684 123.32C110.841 122.372 110.927 121.41 111.015 120.451C111.092 119.613 111.1 118.767 111.191 117.93C111.293 116.994 111.466 116.065 111.584 115.13C111.755 113.787 111.904 112.441 112.064 111.096C112.106 110.735 112.153 110.374 112.254 109.959C113.3 110.634 114.29 111.362 115.281 112.152C115.186 112.788 115.065 113.358 115 113.935C114.792 115.791 114.592 117.648 114.417 119.507C114.363 120.08 114.423 120.662 114.391 121.239C114.335 122.228 114.288 123.221 114.164 124.203C114.05 125.114 113.748 126.007 113.695 126.917C113.621 128.173 113.798 129.445 113.314 130.663C113.239 130.852 113.294 131.092 113.289 131.309C113.262 132.488 113.462 133.732 113.149 134.829C112.772 136.15 112.658 137.44 112.631 138.782C112.618 139.424 112.47 140.075 112.3 140.699C111.93 142.051 111.451 143.371 111.763 144.822C111.842 145.189 111.731 145.624 111.617 146.001C111.325 146.962 111.096 147.903 111.379 148.922C111.511 149.394 111.657 150.031 111.448 150.394C111.027 151.128 110.886 151.799 111.186 152.574C110.342 152.392 109.499 152.209 108.6 152.019C108.138 151.72 107.696 151.467 107.33 151.131C105.831 149.761 104.368 148.351 102.867 146.983C100.98 145.261 99.0686 143.566 97.1465 141.814Z" fill="#6BB8A8"/>
<path d="M51.5809 58.0942C53.9905 59.763 56.3309 61.4887 58.7324 63.1247C59.75 63.8179 60.9119 64.2954 61.9789 64.9209C63.0017 65.5205 64.01 66.1513 64.9827 66.8286C66.4687 67.8634 67.7941 69.1382 69.5221 69.8057C69.7011 69.8748 69.8608 69.9955 70.0269 70.0965C71.558 71.0278 73.0916 71.9549 74.6167 72.8959C74.9461 73.0991 75.2722 73.3237 75.5509 73.5896C76.2031 74.2117 76.948 74.546 77.9013 74.5133C76.8951 75.3611 75.8457 76.1623 74.7972 76.9647C73.845 77.6934 72.8938 78.4236 71.9422 79.1531C71.1634 78.6189 70.3617 78.1151 69.6096 77.5456C64.4079 73.6067 59.2115 69.6609 54.0246 65.7026C52.0528 64.1979 50.1108 62.6542 48.1392 61.0834C48.7295 60.5452 49.3455 60.0631 49.9395 59.5553C50.4841 59.0897 51.005 58.5962 51.5809 58.0942Z" fill="#63A89A"/>
<path d="M44.3732 100.023C44.1965 99.7626 44.1236 99.44 43.9288 99.231C42.8069 98.0271 41.6554 96.8508 40.5163 95.6628C40.4156 95.5578 40.3496 95.4139 40.2375 95.3264C38.5192 93.9852 37.3926 92.0905 35.8206 90.614C35.4663 90.2813 35.0532 90.006 34.7278 89.649C33.8617 88.6985 33.0635 87.6845 32.1741 86.7573C30.8697 85.3975 29.5205 84.0799 28.1676 82.7678C27.6099 82.2268 26.9932 81.7466 26.3608 81.2126C26.9756 80.5652 27.6329 79.9441 28.3371 79.3071C28.8137 79.6001 29.2791 79.8695 29.667 80.2238C32.2158 82.5526 34.7363 84.9123 37.2884 87.2375C40.29 89.9722 43.316 92.6802 46.3273 95.4043C46.9222 95.9425 47.4983 96.5013 48.1074 97.0924C46.8947 98.0938 45.6577 99.0534 44.3732 100.023Z" fill="#59998C"/>
<path d="M154.035 30.069C153.985 29.2028 153.945 28.269 153.907 27.2656C153.954 28.1312 154 29.0662 154.035 30.069Z" fill="#21A3F1"/>
<path d="M71.3426 40.0762C71.3941 40.1785 71.403 40.2877 71.4119 40.3968C71.318 40.3545 71.2241 40.3123 71.1079 40.2344C71.1571 40.1602 71.2286 40.1216 71.3426 40.0762Z" fill="#0075B7"/>
<path d="M153.889 27.0098C153.839 26.8991 153.8 26.734 153.762 26.5166C153.808 26.628 153.854 26.7916 153.889 27.0098Z" fill="#21A3F1"/>
<path d="M153.741 26.2875C153.696 26.2584 153.662 26.1833 153.622 26.0669C153.661 26.0976 153.706 26.1695 153.741 26.2875Z" fill="#21A3F1"/>
<path d="M108.66 6.14355C108.661 6.16843 108.62 6.20469 108.546 6.26534C108.548 6.24481 108.583 6.19988 108.66 6.14355Z" fill="#25AEF3"/>
<path d="M115.28 112.152C115.682 112.375 116.083 112.66 116.536 112.94C116.592 124.394 116.605 135.854 116.595 147.313C116.592 149.693 114.72 151.877 112.312 152.41C111.98 152.484 111.642 152.525 111.246 152.577C110.886 151.799 111.027 151.128 111.448 150.394C111.656 150.031 111.51 149.394 111.379 148.922C111.096 147.903 111.325 146.962 111.616 146.001C111.73 145.624 111.842 145.189 111.763 144.822C111.451 143.371 111.93 142.051 112.299 140.699C112.47 140.075 112.618 139.424 112.631 138.782C112.658 137.44 112.772 136.15 113.149 134.829C113.462 133.732 113.262 132.488 113.289 131.309C113.294 131.092 113.238 130.852 113.313 130.663C113.798 129.445 113.62 128.173 113.694 126.917C113.748 126.007 114.049 125.114 114.164 124.203C114.287 123.221 114.335 122.228 114.39 121.238C114.422 120.662 114.362 120.08 114.416 119.507C114.591 117.648 114.792 115.791 115 113.935C115.065 113.358 115.185 112.788 115.28 112.152Z" fill="#63A89A"/>
<path d="M116.595 45.2897C115.773 45.9341 114.944 46.492 114.144 47.0898C112.741 48.1392 111.356 49.2131 109.915 50.2847C109.878 50.2206 109.863 50.1216 109.904 50.0803C110.651 49.3392 110.751 48.3792 110.858 47.4054C111.127 44.948 111.829 42.5431 111.655 40.0273C111.612 39.4002 111.834 38.7141 112.081 38.1163C112.588 36.8941 112.51 35.6365 112.488 34.3718C112.482 34.0095 112.476 33.6443 112.513 33.2849C112.796 30.5109 113.114 27.7401 113.375 24.9641C113.646 22.0876 113.812 19.2003 114.13 16.3295C114.304 14.7625 114.615 13.1973 115.028 11.676C115.224 10.9556 115.806 10.3402 116.264 9.66504C116.408 10.2725 116.582 10.8922 116.583 11.5121C116.602 22.7484 116.599 33.9848 116.595 45.2897Z" fill="#59998C"/>
<path d="M100.675 101.12C100.758 101.118 100.859 101.16 100.988 101.235C100.907 101.233 100.8 101.198 100.675 101.12Z" fill="#0080CE"/>
</g>
<defs>
<clipPath id="clip0_1034_1856">
<rect width="158" height="158" fill="white"/>
</clipPath>
</defs>
</svg>
